{"title":"My.Sisters.Hot.Friend.Lisa.Ann.Jessica.Jaymes.Nicole.Aniston.XXX","uid":10618667,"size":371079966,"categoryP":"porn","categoryS":"movies","magnet":"?xt=urn:btih:489760e0c48aaeaaf160055ec5c161573ee628d0&amp;dn=My.Sisters.Hot.Friend.Lisa.Ann.Jessica.Jaymes.Nicole.Aniston.XXX&amp;tr=udp%3A%2F%2Ftracker.openbittorrent.com%3A80&amp;tr=udp%3A%2F%2Fopen.demonii.com%3A1337&amp;tr=udp%3A%2F%2Ftracker.coppersurfer.tk%3A6969&amp;tr=udp%3A%2F%2Fexodus.desync.com%3A6969","seeders":5,"leechers":0,"uploader":"XXXmegathor","files":1,"time":1406150218,"description":"My.Sisters.Hot.Friend.Lisa.Ann.Jessica.Jaymes.Nicole.Aniston.XXX\n\nSCREENIES &lt;a href=&quot;\nhttp://www.xxxtrapics.com/image/RG&quot; rel=&quot;nofollow&quot; target=&quot;_NEW&quot;&gt;\nhttp://www.xxxtrapics.com/image/RG&lt;/a&gt;\n\n\nDuration : 50mn 11s\nBit rate mode : Variable\nBit rate : 900 Kbps\nWidth : 640 pixels\nHeight : 360 pixels\nDisplay aspect ratio : 16:9\nFrame rate mode : Constant\nFrame rate : 30.000 fps\nColor space : YUV\nChroma subsampling : 4:2:0\nBit depth : 8 bits\nScan type : Progressive\nBits/(Pixel*Frame) : 0.130\nStream size : 323 MiB (91%)\nWriting library : x264 core 120\nEncoding settings : cabac=1 / ref=3 / deblock=1:0:0 / analyse=0x1:0x111 / me=hex / subme=6 / psy=0 / mixed_ref=0 / me_range=16 / chroma_me=1 / trellis=1 / 8x8dct=0 / cqm=0 / deadzone=21,11 / fast_pskip=1 / chroma_qp_offset=0 / threads=3 / sliced_threads=0 / nr=0 / decimate=1 / interlaced=0 / bluray_compat=0 / constrained_intra=0 / bframes=3 / b_pyramid=0 / b_adapt=1 / b_bias=0 / direct=1 / weightb=0 / open_gop=0 / weightp=2 / keyint=150 / keyint_min=25 / scenecut=40 / intra_refresh=0 / rc=2pass / mbtree=0 / bitrate=900 / ratetol=1.0 / qcomp=0.60 / qpmin=10 / qpmax=51 / qpstep=4 / cplxblur=20.0 / qblur=0.5 / ip_ratio=1.40 / pb_ratio=1.30 / aq=1:1.00\nLanguage : English\nEncoded date : UTC 2012-06-27 21:47:37\nTagged date : UTC 2012-06-27 21:47:37\n\nAudio\nID : 2\nFormat : AAC\nFormat/Info : Advanced Audio Codec\nFormat profile : LC\nCodec ID : 40\nDuration : 50mn 11s\nBit rate mode : Variable\nBit rate : 77.3 Kbps\nMaximum bit rate : 96.0 Kbps\nChannel(s) : 2 channels\nChannel positions : Front: L R\nSampling rate : 44.1 KHz\nCompression mode : Lossy\nStream size : 27.7 MiB (8%)\nLanguage : English\nEncoded date : UTC 2012-06-27 21:47:37\nTagged date : UTC 2012-06-27 21:47:37\n","torrent":{"xt":"urn:btih:489760e0c48aaeaaf160055ec5c161573ee628d0","amp;dn":"My.Sisters.Hot.Friend.Lisa.Ann.Jessica.Jaymes.Nicole.Aniston.XXX","amp;tr":["udp%3A%2F%2Ftracker.openbittorrent.com%3A80","udp%3A%2F%2Fopen.demonii.com%3A1337","udp%3A%2F%2Ftracker.coppersurfer.tk%3A6969","udp%3A%2F%2Fexodus.desync.com%3A6969"],"infoHash":"489760e0c48aaeaaf160055ec5c161573ee628d0","infoHashBuffer":{"type":"Buffer","data":[72,151,96,224,196,138,174,170,241,96,5,94,197,193,97,87,62,230,40,208]},"announce":[],"urlList":[]}}